<?xml version="1.0" encoding="UTF-8" standalone="no"?>
<!-- Created with Inkscape (http://www.inkscape.org/) -->

<svg
   xmlns:dc="http://purl.org/dc/elements/1.1/"
   xmlns:cc="http://creativecommons.org/ns#"
   xmlns:rdf="http://www.w3.org/1999/02/22-rdf-syntax-ns#"
   xmlns:svg="http://www.w3.org/2000/svg"
   xmlns="http://www.w3.org/2000/svg"
   xmlns:sodipodi="http://sodipodi.sourceforge.net/DTD/sodipodi-0.dtd"
   xmlns:inkscape="http://www.inkscape.org/namespaces/inkscape"
   version="1.1"
   id="svg10"
   width="300"
   height="300"
   viewBox="0 0 300 300"
   sodipodi:docname="logoprincipal.svg"
   inkscape:version="0.92.3 (2405546, 2018-03-11)">
  <metadata
     id="metadata16">
    <rdf:RDF>
      <cc:Work
         rdf:about="">
        <dc:format>image/svg+xml</dc:format>
        <dc:type
           rdf:resource="http://purl.org/dc/dcmitype/StillImage" />
        <dc:title />
      </cc:Work>
    </rdf:RDF>
  </metadata>
  <defs
     id="defs14">
    <inkscape:perspective
       sodipodi:type="inkscape:persp3d"
       inkscape:vp_x="0 : 150 : 1"
       inkscape:vp_y="0 : 1000 : 0"
       inkscape:vp_z="300 : 150 : 1"
       inkscape:persp3d-origin="150 : 100 : 1"
       id="perspective3803" />
  </defs>
  <sodipodi:namedview
     pagecolor="#ffffff"
     bordercolor="#666666"
     borderopacity="1"
     objecttolerance="10"
     gridtolerance="10"
     guidetolerance="10"
     inkscape:pageopacity="0"
     inkscape:pageshadow="2"
     inkscape:window-width="809"
     inkscape:window-height="556"
     id="namedview12"
     showgrid="false"
     inkscape:pagecheckerboard="false"
     inkscape:zoom="1.4142136"
     inkscape:cx="230.20369"
     inkscape:cy="123.81686"
     inkscape:window-x="1652"
     inkscape:window-y="113"
     inkscape:window-maximized="1"
     inkscape:current-layer="g3949"
     showborder="true" />
  <path
     style="fill:#000000;stroke-width:0.97951007"
     d=""
     id="path32"
     inkscape:connector-curvature="0" />
  <path
     style="fill:#000000;stroke-width:0.97951007"
     d=""
     id="path30"
     inkscape:connector-curvature="0" />
  <path
     style="fill:#000000"
     d=""
     id="path45"
     inkscape:connector-curvature="0" />
  <g
     id="g3949"
     transform="rotate(9.4548717,241.76396,172.77782)">
    <path
       d="m 190.11289,169.77034 -49.24664,-44.08014 -8.1346,45.62013 65.98734,4.94486 -31.40117,-139.967134 1.82703,90.457154 z M 179.77743,17.275897 c 33.13878,88.080163 45.09921,106.896803 98.50763,274.792943 -2.11942,-2.87779 -9.15627,0.66702 -13.90521,-5.2497 -15.7267,-19.59387 -10.0546,-2.37379 -11.37757,-4.74282 -18.94151,-33.91838 -26.12329,-56.78362 -33.54781,-70.23121 -2.31839,-4.19916 -4.66044,-7.48003 -7.39162,-9.89241 -6.05468,-5.34795 -11.05298,-4.82901 -39.07609,-6.28299 -2.19133,-0.1137 3.30246,20.59303 -6.18361,19.60189 -12.78983,-1.33634 -41.52015,-24.00324 -40.80754,-20.43008 23.15216,116.08977 -18.30433,19.88925 -20.28169,41.81491 -5.733539,63.57568 19.15544,85.85721 -11.057982,61.49271 -4.704987,-3.79417 -11.272812,6.67908 -17.473659,-8.11028 -6.635958,3.61096 -14.984418,5.41644 -25.045381,5.41644 -5.779703,0 -9.900425,-0.86669 -12.362149,-2.5999 -2.461724,-1.73326 -3.692582,-4.54981 -3.692582,-8.44965 C 47.332526,221.53426 153.2525,-17.971147 179.77743,17.275897 Z"
       id="path3800"
       inkscape:connector-curvature="0"
       sodipodi:nodetypes="cccccccccssssssssscsscc"
       style="font-style:normal;font-variant:normal;font-weight:normal;font-stretch:normal;font-size:medium;line-height:1.25;font-family:Forte;-inkscape-font-specification:Forte;letter-spacing:0px;word-spacing:0px;fill:#000000;fill-opacity:1;stroke:none;stroke-width:9.549016" />
    <path
       sodipodi:nodetypes="sscsssscss"
       inkscape:connector-curvature="0"
       id="rect3823"
       d="m 84.839271,182.92804 c 3.887931,38.47747 25.532109,0.4567 23.003079,12.01441 l -7.39987,33.81766 c 0,0 -2.781503,-7.60524 2.5272,-22.97806 1.45061,-4.20067 -9.878131,4.39245 -13.139318,2.24934 -4.004458,-2.63168 -4.887486,-17.70939 -7.491876,-15.22931 -2.308577,2.19837 -6.514779,15.20158 -8.92581,19.4901 -3.777619,6.7192 -6.587658,5.15516 -5.588901,2.3546 l 3.950987,-10.28479 c 1.736529,-4.52038 11.408397,-37.82391 13.064509,-21.43395 z"
       style="fill:#ff0000;stroke-width:8.38412571" />
    <path
       sodipodi:nodetypes="cssssssccssssssssc"
       inkscape:connector-curvature="0"
       id="rect3841"
       d="m 68.634656,225.02231 c 4.27516,3.51785 4.107348,-1.45004 12.825487,5.06571 4.017454,3.00255 1.615588,21.48106 -2.033329,21.74029 l -5.943496,0.42219 c -1.598145,0.11359 5.891299,3.7339 9.639497,8.27007 7.007709,8.48093 -4.939904,23.55619 -6.042086,19.80234 0,0 1.027254,-5.26703 3.328398,-6.68897 4.186131,-2.58673 2.92624,-6.84823 2.92624,-6.84823 l -5.507586,-7.15315 -5.42413,-4.69335 c -0.628421,-0.54376 -6.2562,-4.03203 -6.223679,5.24787 0.02389,6.81599 -3.597943,23.2741 -5.392819,22.39964 -1.256098,-0.61197 0.975133,-3.24093 1.203982,-4.21151 1.21903,-5.17007 -5.190418,-1.60917 -4.352271,-5.57563 1.041293,-4.92783 6.147195,-22.10239 6.147195,-25.19265 v -0.84439 c 0,-6.19744 0.927605,-24.9667 4.848597,-21.74027 z"
       style="fill:#ff0000;stroke-width:9.549016" />
    <rect
       ry="3.8931608"
       y="230.76749"
       x="68.478294"
       height="16.644787"
       width="9.7908792"
       id="rect3844"
       style="fill:#000000;stroke-width:9.549016" />
  </g>
</svg>
